<?xml version="1.0" encoding="UTF-8" standalone="no"?>
<!DOCTYPE svg PUBLIC "-//W3C//DTD SVG 1.1//EN" "http://www.w3.org/Graphics/SVG/1.1/DTD/svg11.dtd">
<svg width="100%" height="100%" viewBox="0 0 2318 1837" version="1.1" xmlns="http://www.w3.org/2000/svg" xmlns:xlink="http://www.w3.org/1999/xlink" xml:space="preserve" style="fill-rule:evenodd;clip-rule:evenodd;stroke-linejoin:round;stroke-miterlimit:1.41421;">
    <path d="M716.711,1240.42L716.711,1290.67L598.97,1246L402.44,1428.75L402.455,1428.76C402.455,1428.76 276.182,1445.23 208.015,1454.12C198.228,1455.4 188.429,1451.86 181.708,1444.64C174.987,1437.41 172.175,1427.38 174.158,1417.71C187.827,1351.08 213.025,1228.24 213.548,1225.68C213.553,1225.66 213.546,1225.63 213.529,1225.61C213.528,1225.61 213.528,1225.61 213.528,1225.61L309.659,1136.22L157.94,1078.66C62.868,1042.58 0,951.487 0,849.802C0,738.314 0,593.225 0,484.022C0,388.887 58.818,303.66 147.766,269.91C333.264,199.527 646.751,80.581 808.86,19.072C875.881,-6.357 949.896,-6.357 1016.92,19.072C1175.31,79.17 1478.21,194.099 1665.05,264.991C1761.8,301.701 1825.78,394.407 1825.78,497.89L1825.78,603.057L1767.19,580.256L1404.39,580.256L1404.39,794.111L1134.75,794.111L1134.75,847.575L1209.13,847.575L1209.13,914.985L1237.03,914.985L1237.03,956.827L1327.68,956.827L1327.68,1028.89L1262.6,1028.89L1262.6,1059.11L1164.97,1059.11L1164.97,1105.6L1006.9,1105.6L1006.9,1168.36L834.887,1168.36L834.887,1240.42L716.711,1240.42ZM1797.41,961.024L1797.39,960.994L1797.45,960.961L1797.41,961.024ZM416.475,230.564L413.71,231.58L416.475,231.58L416.475,230.564Z" style="fill:rgb(71,71,71);"/>
    <g id="Bobble_Border-Black" transform="matrix(1,0,0,1,-280.189,-376.935)">
        <path d="M2042.6,955.334L2042.6,911.084C2042.6,806.634 1977.44,713.277 1879.4,677.261C1706.48,613.738 1438.86,515.429 1294.19,462.286C1228.92,438.306 1157.24,438.306 1091.96,462.286C943.573,516.797 665.817,618.831 493.591,682.097C403.457,715.208 343.551,801.034 343.551,897.058C343.551,986.872 343.551,1098.96 343.551,1190.51C343.551,1293.15 407.582,1384.88 503.923,1420.27L710.097,1496.01L662.264,1540.63L662.21,1540.61L540.964,1653.36L540.91,1653.3C540.91,1653.3 532.311,1694.92 525.355,1728.58C523.355,1738.26 526.165,1748.31 532.896,1755.55C539.627,1762.79 549.446,1766.32 559.246,1765.03C593.328,1760.54 635.46,1754.98 635.46,1754.98L635.37,1754.88L647.65,1743.46L648.395,1744.26L856.756,1549.89L996.901,1601.37L996.901,1667.6L879.16,1622.93L682.629,1805.68L682.644,1805.7C682.644,1805.7 556.371,1822.16 488.204,1831.06C478.418,1832.33 468.618,1828.8 461.897,1821.57C455.177,1814.34 452.364,1804.31 454.347,1794.64C468.016,1728.01 493.214,1605.17 493.738,1602.62C493.743,1602.59 493.736,1602.57 493.718,1602.55C493.717,1602.55 493.717,1602.55 493.717,1602.55L589.848,1513.16L438.13,1455.59C343.058,1419.52 280.189,1328.42 280.189,1226.74C280.189,1115.25 280.189,970.16 280.189,860.956C280.189,765.822 339.008,680.594 427.955,646.845C613.454,576.462 926.941,457.516 1089.05,396.007C1156.07,370.577 1230.09,370.577 1297.11,396.007C1455.5,456.105 1758.4,571.034 1945.24,641.926C2041.99,678.636 2105.97,771.342 2105.97,874.825L2105.97,979.992L2042.6,955.334ZM2077.6,1337.96L2077.58,1337.93L2077.64,1337.9L2077.6,1337.96Z" style="fill:rgb(51,51,51);"/>
    </g>
    <path d="M2048.5,1524.06L2181.92,1472.18C2265.53,1439.67 2320.81,1357.57 2320.81,1265.93C2320.81,1165.45 2320.81,1034.7 2320.81,936.279C2320.81,850.541 2269.09,773.731 2190.87,743.316C2027.74,679.884 1752.06,572.686 1609.5,517.252C1550.56,494.334 1485.47,494.334 1426.53,517.252C1287.25,571.414 1020.87,674.992 856.568,738.882C771.484,771.966 715.22,855.516 715.22,948.778C715.22,1044.09 715.22,1165.88 715.22,1261.51C715.22,1355.81 772.113,1440.3 858.148,1473.75C1022.39,1537.62 1287.09,1640.54 1426.06,1694.58C1485.3,1717.62 1550.73,1717.62 1609.97,1694.58L1794.08,1622.99L1966.9,1787.69L1966.89,1787.71C1966.89,1787.71 2077.94,1802.55 2137.88,1810.56C2146.49,1811.71 2155.11,1808.53 2161.02,1802.02C2166.93,1795.5 2169.4,1786.46 2167.66,1777.75C2155.64,1717.69 2133.48,1606.99 2133.02,1604.69C2133.01,1604.67 2133.02,1604.64 2133.03,1604.63C2133.03,1604.62 2133.03,1604.62 2133.03,1604.62L2048.5,1524.06ZM1960.53,710.102L1960.53,710.423L1961.38,710.423L1960.53,710.102Z" style="fill:rgb(71,71,71);"/>
    <g id="Bobble_Border-Purple" transform="matrix(-0.879401,0,0,0.901231,2599.42,198.085)">
        <path d="M626.477,1471.3L474.759,1413.73C379.686,1377.66 316.818,1286.56 316.818,1184.88C316.818,1073.39 316.818,928.298 316.818,819.095C316.818,723.96 375.636,638.733 464.584,604.984C650.083,534.6 963.57,415.654 1125.68,354.146C1192.7,328.716 1266.71,328.716 1333.74,354.146C1492.13,414.243 1795.03,529.173 1981.86,600.064C2078.62,636.775 2142.6,729.48 2142.6,832.963C2142.6,938.724 2142.6,1073.85 2142.6,1179.97C2142.6,1284.61 2077.9,1378.35 1980.07,1415.47C1793.3,1486.33 1492.3,1600.54 1334.27,1660.5C1266.91,1686.06 1192.51,1686.06 1125.14,1660.5L915.789,1581.07L719.258,1763.82L719.273,1763.84C719.273,1763.84 593,1780.3 524.833,1789.19C515.047,1790.47 505.247,1786.94 498.526,1779.71C491.806,1772.48 488.993,1762.45 490.976,1752.78C504.645,1686.15 529.843,1563.31 530.367,1560.76C530.372,1560.73 530.364,1560.71 530.347,1560.69C530.346,1560.69 530.346,1560.69 530.346,1560.69L626.477,1471.3ZM893.384,1508.03L1128.07,1594.24C1193.68,1618.34 1265.73,1618.34 1331.35,1594.24C1475.62,1541.24 1741.44,1443.59 1914.2,1380.12C2013.34,1343.7 2079.23,1249.3 2079.23,1143.69C2079.23,1057.82 2079.23,954.828 2079.23,869.222C2079.23,764.773 2014.07,671.416 1916.03,635.399C1743.11,571.876 1475.49,473.567 1330.82,420.425C1265.55,396.445 1193.87,396.445 1128.59,420.425C980.201,474.935 702.445,576.969 530.22,640.236C440.086,673.347 380.18,759.173 380.18,855.196C380.18,945.01 380.18,1057.1 380.18,1148.65C380.18,1251.29 444.211,1343.02 540.552,1378.41L746.726,1454.15L698.893,1498.77L698.839,1498.75L577.593,1611.5L577.538,1611.44C577.538,1611.44 568.94,1653.06 561.984,1686.72C559.984,1696.4 562.794,1706.45 569.525,1713.69C576.256,1720.93 586.075,1724.46 595.875,1723.17C629.957,1718.67 672.089,1713.12 672.089,1713.12L671.999,1713.02L684.279,1701.6L685.024,1702.4L893.384,1508.03Z" style="fill:rgb(51,51,51);"/>
    </g>
</svg>
